<?xml version="1.0" encoding="UTF-8"?> <svg xmlns="http://www.w3.org/2000/svg" width="329" height="45" viewBox="0 0 329 45" fill="none"><path d="M30.44 4.928C26.7707 8.34133 22.632 13.1413 18.024 19.328C16.2747 21.76 14.5253 24.384 12.776 27.2C10.0453 31.552 8.85067 34.24 9.192 35.264C9.27733 35.5627 9.68267 35.712 10.408 35.712C12.4987 35.712 16.4453 34.752 22.248 32.832C23.9973 32.2347 24.936 32.1707 25.064 32.64C25.2347 33.28 24.552 33.9627 23.016 34.688C17.512 37.376 12.2853 39.168 7.336 40.064C5.33067 40.448 3.85867 40.2987 2.92 39.616C1.81067 38.6347 1.192 37.6533 1.064 36.672C0.722667 33.9413 3.88 28.032 10.536 18.944C15.9973 11.52 20.3067 6.464 23.464 3.776C24.36 3.008 25.512 2.624 26.92 2.624C27.56 2.624 28.2 2.70933 28.84 2.88C30.12 3.22133 30.76 3.712 30.76 4.352C30.76 4.56533 30.6533 4.75733 30.44 4.928ZM32.7085 5.12C30.6605 7.936 28.6552 10.752 26.6925 13.568C26.3085 14.08 25.8605 14.336 25.3485 14.336C24.4098 14.336 23.9405 13.824 23.9405 12.8C23.9405 12.5013 23.9832 12.224 24.0685 11.968C24.5378 10.6453 25.8178 7.44533 27.9085 2.368C28.3778 1.17333 29.1885 0.575996 30.3405 0.575996C30.8525 0.575996 31.3645 0.72533 31.8765 1.024C32.6872 1.49333 33.0925 2.32533 33.0925 3.52C33.0925 4.11733 32.9645 4.65066 32.7085 5.12ZM83.4185 3.584C81.0292 5.71733 77.7225 9.96266 73.4985 16.32C66.5865 26.7733 62.4052 34.3893 60.9545 39.168C60.9118 39.8507 60.8478 40.576 60.7625 41.344C60.7198 41.3867 60.6772 41.4293 60.6345 41.472C60.4638 41.5573 60.2932 41.6 60.1225 41.6C59.1412 41.6 58.3305 40.896 57.6905 39.488C57.0932 38.2933 56.7945 37.12 56.7945 35.968C56.7945 32.8107 58.8425 27.8827 62.9385 21.184C61.5732 22.08 57.7758 22.528 51.5465 22.528C51.1198 22.528 50.5865 22.9547 49.9465 23.808C48.1545 26.7093 45.2745 31.4667 41.3065 38.08C40.4532 39.5733 39.3438 40.32 37.9785 40.32C37.1678 40.32 36.4212 40.0213 35.7385 39.424C35.0558 38.8267 34.7145 38.1227 34.7145 37.312C34.7145 36.8853 34.8212 36.48 35.0345 36.096C36.9972 32.9387 39.7065 28.5227 43.1625 22.848C42.8212 22.8053 42.2878 22.8053 41.5625 22.848C40.6238 22.9333 39.9838 22.976 39.6425 22.976C38.1492 22.976 37.1038 22.6133 36.5065 21.888C36.2932 21.5893 36.1865 21.2053 36.1865 20.736C36.1865 19.584 36.5705 19.008 37.3385 19.008C37.5092 19.008 37.6585 19.0293 37.7865 19.072C39.4932 19.7973 41.8612 20.096 44.8905 19.968C47.3652 16 50.6505 10.9013 54.7465 4.672C55.2158 3.98933 56.0478 3.648 57.2425 3.648C59.6318 3.648 60.8265 4.544 60.8265 6.336C60.8265 6.63466 60.7625 6.89066 60.6345 7.104C58.4585 10.3467 55.6212 14.6773 52.1225 20.096C57.7972 20.096 61.3172 19.9467 62.6825 19.648C63.0238 19.5627 63.5145 19.4347 64.1545 19.264L65.1145 17.728C68.1438 13.0347 70.2985 9.856 71.5785 8.192C75.0345 3.79733 77.8718 1.6 80.0905 1.6C81.6692 1.6 82.7572 1.83466 83.3545 2.304C83.9518 2.77333 83.9732 3.2 83.4185 3.584ZM96.188 19.264C96.1453 21.4827 94.652 23.6587 91.708 25.792C88.764 27.9253 85.628 28.992 82.3 28.992C81.8307 28.992 81.3613 28.9707 80.892 28.928C79.3987 31.5307 78.652 33.536 78.652 34.944C78.652 36.3093 79.356 36.992 80.764 36.992C82.812 36.992 85.5 35.7973 88.828 33.408C89.5533 32.8533 90.0867 32.7467 90.428 33.088C90.8973 33.6 90.748 34.1547 89.98 34.752C88.9133 35.5627 87.1 36.7787 84.54 38.4C81.5533 40.0213 78.7373 40.8533 76.092 40.896C72.6787 40.9387 70.9293 39.5093 70.844 36.608C70.7587 32.6827 72.7853 28.5013 76.924 24.064C81.8733 18.816 87.0147 16.128 92.348 16C93.5 16 94.4173 16.256 95.1 16.768C95.8253 17.28 96.188 18.112 96.188 19.264ZM92.22 18.752C91.0253 18.752 89.3187 19.6053 87.1 21.312C84.924 23.0187 83.196 24.8747 81.916 26.88C83.1107 26.9653 84.4547 26.6453 85.948 25.92C86.3747 25.664 87.5693 24.9387 89.532 23.744C90.1293 23.3173 90.876 22.6133 91.772 21.632C92.668 20.6507 93.116 19.904 93.116 19.392C93.116 18.9653 92.8173 18.752 92.22 18.752ZM125.38 19.904C125.294 20.5013 124.996 21.1627 124.484 21.888C123.588 23.1253 121.625 26.176 118.596 31.04C118.553 31.0827 117.806 32.8107 116.356 36.224C114.99 39.4667 114.244 41.088 114.116 41.088C113.732 41.088 113.348 40.9387 112.964 40.64C111.641 39.5733 110.98 37.9947 110.98 35.904C110.98 33.1307 112.217 29.8453 114.692 26.048C110.596 30.3573 107.865 33.1307 106.5 34.368C102.148 38.336 98.8195 40.32 96.5155 40.32C94.2968 40.32 93.1875 39.2747 93.1875 37.184C93.1875 36.0747 93.5502 34.88 94.2755 33.6C96.4942 29.632 99.5448 24.7467 103.428 18.944C104.537 17.3227 105.646 16.512 106.756 16.512C107.268 16.512 107.822 16.6827 108.42 17.024C109.444 17.6213 109.956 18.3893 109.956 19.328C109.956 20.1387 109.508 21.2267 108.612 22.592C103.876 29.8453 101.614 33.728 101.828 34.24C101.956 34.5813 102.489 34.432 103.428 33.792C106.5 31.744 109.764 28.736 113.22 24.768L118.532 18.624C118.916 18.1547 119.172 17.8773 119.3 17.792C119.726 17.3227 120.174 17.0453 120.644 16.96C121.796 16.704 122.841 16.832 123.78 17.344C124.974 17.984 125.508 18.8373 125.38 19.904ZM148.032 19.2C148.032 19.7973 147.84 20.4587 147.456 21.184C147.072 21.8667 146.624 22.208 146.112 22.208C145.898 22.208 145.578 22.1013 145.152 21.888C144.768 21.632 144.405 21.504 144.064 21.504C143.594 21.504 143.061 21.696 142.464 22.08C138.88 24.384 135.082 28.4373 131.072 34.24C130.346 35.4347 129.621 36.6507 128.896 37.888C127.829 39.3813 126.784 40.128 125.76 40.128C124.778 40.128 124.01 39.872 123.456 39.36C122.773 38.6773 122.431 38.016 122.431 37.376C122.431 36.7787 122.688 35.9893 123.2 35.008C125.205 31.2533 128.789 25.3867 133.952 17.408C134.592 16.4693 135.317 16 136.128 16C136.682 16 137.28 16.192 137.92 16.576C138.858 17.1733 139.306 17.8347 139.264 18.56C139.221 19.3707 138.624 20.6933 137.472 22.528C136.021 24.704 134.57 26.88 133.12 29.056C135.978 25.3013 138.432 22.4427 140.48 20.48C142.869 18.176 144.789 17.024 146.24 17.024C147.434 17.024 148.032 17.7493 148.032 19.2ZM170.126 19.264C170.083 21.4827 168.59 23.6587 165.646 25.792C162.702 27.9253 159.566 28.992 156.238 28.992C155.768 28.992 155.299 28.9707 154.83 28.928C153.336 31.5307 152.59 33.536 152.59 34.944C152.59 36.3093 153.294 36.992 154.702 36.992C156.75 36.992 159.438 35.7973 162.766 33.408C163.491 32.8533 164.024 32.7467 164.366 33.088C164.835 33.6 164.686 34.1547 163.918 34.752C162.851 35.5627 161.038 36.7787 158.478 38.4C155.491 40.0213 152.675 40.8533 150.03 40.896C146.616 40.9387 144.867 39.5093 144.782 36.608C144.696 32.6827 146.723 28.5013 150.862 24.064C155.811 18.816 160.952 16.128 166.286 16C167.438 16 168.355 16.256 169.038 16.768C169.763 17.28 170.126 18.112 170.126 19.264ZM166.158 18.752C164.963 18.752 163.256 19.6053 161.038 21.312C158.862 23.0187 157.134 24.8747 155.854 26.88C157.048 26.9653 158.392 26.6453 159.885 25.92C160.312 25.664 161.507 24.9387 163.47 23.744C164.067 23.3173 164.814 22.6133 165.71 21.632C166.606 20.6507 167.054 19.904 167.054 19.392C167.054 18.9653 166.755 18.752 166.158 18.752ZM199.317 19.904C199.232 20.5013 198.933 21.1627 198.421 21.888C197.525 23.1253 195.562 26.176 192.533 31.04C192.49 31.0827 191.744 32.8107 190.293 36.224C188.928 39.4667 188.181 41.088 188.053 41.088C187.669 41.088 187.285 40.9387 186.901 40.64C185.578 39.5733 184.917 37.9947 184.917 35.904C184.917 33.1307 186.154 29.8453 188.629 26.048C184.533 30.3573 181.802 33.1307 180.437 34.368C176.085 38.336 172.757 40.32 170.453 40.32C168.234 40.32 167.125 39.2747 167.125 37.184C167.125 36.0747 167.488 34.88 168.213 33.6C170.432 29.632 173.482 24.7467 177.365 18.944C178.474 17.3227 179.584 16.512 180.693 16.512C181.205 16.512 181.76 16.6827 182.357 17.024C183.381 17.6213 183.893 18.3893 183.893 19.328C183.893 20.1387 183.445 21.2267 182.549 22.592C177.813 29.8453 175.552 33.728 175.765 34.24C175.893 34.5813 176.426 34.432 177.365 33.792C180.437 31.744 183.701 28.736 187.157 24.768L192.469 18.624C192.853 18.1547 193.109 17.8773 193.237 17.792C193.664 17.3227 194.112 17.0453 194.581 16.96C195.733 16.704 196.778 16.832 197.717 17.344C198.912 17.984 199.445 18.8373 199.317 19.904ZM222.801 20.48C222.801 21.4187 221.99 22.4 220.369 23.424C217.937 24.96 215.654 26.24 213.521 27.264C210.492 28.672 208.892 29.4187 208.721 29.504C207.996 31.5093 207.953 33.4933 208.593 35.456C209.148 37.0773 210.257 37.76 211.921 37.504C213.713 37.2053 215.718 36.2453 217.937 34.624C218.406 34.1547 218.812 34.112 219.153 34.496C219.537 34.9227 219.409 35.3707 218.769 35.84C216.636 37.4613 214.332 38.784 211.857 39.808C209.425 40.7893 207.42 41.2373 205.841 41.152C202.556 40.9387 200.913 38.9547 200.913 35.2C200.913 34.8587 200.913 34.4533 200.913 33.984C200.956 33.4293 200.977 33.088 200.977 32.96C200.977 32.7893 200.934 32.6827 200.849 32.64C200.764 32.5973 200.593 32.64 200.337 32.768C199.484 33.1947 198.438 33.9627 197.201 35.072C197.03 35.2 196.86 35.264 196.689 35.264C196.177 35.264 195.921 34.9653 195.921 34.368C195.921 33.6427 196.326 33.0027 197.137 32.448C197.521 32.1493 198.95 31.3173 201.425 29.952C202.108 27.1787 202.662 25.1307 203.089 23.808C203.814 21.4187 204.646 19.4133 205.585 17.792C206.182 16.7253 207.206 16.192 208.657 16.192C209.084 16.192 209.532 16.256 210.001 16.384C211.58 16.768 212.369 17.408 212.369 18.304C212.369 18.688 212.262 19.1573 212.049 19.712C211.452 21.2053 210.641 23.424 209.617 26.368C213.244 24.1493 215.292 22.8907 215.761 22.592C218.193 20.928 220.028 19.264 221.265 17.6C221.35 17.5147 221.436 17.472 221.521 17.472C221.777 17.472 222.054 17.8773 222.353 18.688C222.652 19.456 222.801 20.0533 222.801 20.48Z" fill="#EEECEB"></path><path d="M297.329 8.192C297.457 9.42933 297.073 10.624 296.177 11.776C288.539 21.7173 282.673 31.3387 278.577 40.64C278.278 41.28 278.001 42.176 277.745 43.328C277.745 43.328 277.745 43.6907 277.745 44.416C277.745 44.7573 277.531 44.928 277.105 44.928C276.721 44.928 276.422 44.8427 276.209 44.672C274.374 43.648 273.585 41.6427 273.841 38.656C274.31 33.536 279.238 24.5333 288.625 11.648C288.795 11.392 288.881 11.1787 288.881 11.008C288.881 10.7947 288.753 10.688 288.497 10.688C288.326 10.688 288.07 10.752 287.729 10.88C283.163 12.8427 277.851 16.8747 271.793 22.976C268.891 25.92 265.115 30.4 260.465 36.416C259.867 37.184 259.035 37.568 257.969 37.568C257.286 37.568 256.667 37.376 256.113 36.992C255.387 36.4373 255.025 35.6267 255.025 34.56C255.025 33.792 255.238 33.088 255.665 32.448C258.737 27.968 262.406 22.144 266.673 14.976C267.142 14.1653 267.377 13.568 267.377 13.184C267.377 12.928 267.27 12.8 267.057 12.8C266.801 12.8 266.417 12.9707 265.905 13.312C261.297 16.4267 257.137 19.9253 253.425 23.808C247.238 30.2933 242.843 35.328 240.241 38.912C239.601 39.808 238.555 40.256 237.105 40.256C236.593 40.256 236.102 40.1707 235.633 40C234.438 39.5307 233.84 38.6347 233.84 37.312C233.84 36.8 233.968 36.352 234.224 35.968C234.566 35.3707 238.321 30.1013 245.489 20.16C250.993 12.5227 253.894 7.53067 254.193 5.184C254.363 3.904 253.915 3.264 252.849 3.264C251.227 3.264 248.625 4.56533 245.041 7.168C241.713 9.55733 239.601 11.4773 238.705 12.928C238.235 13.6533 237.638 14.016 236.913 14.016C236.102 14.016 235.697 13.5893 235.697 12.736C235.697 12.1387 236.123 11.4133 236.977 10.56C239.11 8.34133 241.734 6.31467 244.849 4.48C249.073 1.96267 252.934 0.703999 256.433 0.703999C259.035 0.703999 260.337 1.856 260.337 4.16C260.337 6.592 258.929 10.1973 256.113 14.976C255.302 16.3413 253.574 18.9653 250.929 22.848C250.331 23.744 250.033 24.2133 250.033 24.256C250.033 24.2987 250.033 24.32 250.033 24.32C250.203 24.2347 250.566 23.9147 251.121 23.36C261.915 12.5653 269.254 7.168 273.137 7.168C275.014 7.168 275.953 8.064 275.953 9.856C275.953 11.1787 274.779 13.8667 272.433 17.92C271.921 18.688 271.195 19.7973 270.257 21.248C270.257 21.248 271.345 20.2667 273.521 18.304C275.995 16.0853 279.195 13.6533 283.121 11.008C288.113 7.63733 291.718 5.80267 293.937 5.504C295.985 5.20533 297.115 6.10133 297.329 8.192ZM308.462 10.496C308.846 11.0507 309.038 11.648 309.038 12.288C309.038 13.1413 308.697 13.9093 308.014 14.592C307.374 15.232 306.627 15.552 305.774 15.552C304.707 15.552 303.833 15.1253 303.15 14.272C302.809 13.7173 302.638 13.12 302.638 12.48C302.638 11.5413 302.937 10.752 303.534 10.112C304.131 9.472 304.878 9.152 305.774 9.152C306.969 9.152 307.865 9.6 308.462 10.496ZM303.982 18.432C304.153 18.7733 304.238 19.1147 304.238 19.456C304.238 20.2667 303.833 21.248 303.022 22.4C296.494 31.7867 293.315 37.8667 293.486 40.64C293.486 40.9813 293.315 41.1733 292.974 41.216C292.633 41.3013 292.334 41.2587 292.078 41.088C290.371 40.1067 289.518 38.3147 289.518 35.712C289.518 33.4933 290.393 30.7627 292.142 27.52C292.739 26.4533 293.806 24.7467 295.342 22.4C296.878 20.0107 297.902 18.5173 298.414 17.92C299.139 17.0667 299.95 16.6613 300.846 16.704C302.382 16.7467 303.427 17.3227 303.982 18.432ZM328.176 20.48C328.176 21.4187 327.365 22.4 325.744 23.424C323.312 24.96 321.029 26.24 318.896 27.264C315.867 28.672 314.267 29.4187 314.096 29.504C313.371 31.5093 313.328 33.4933 313.968 35.456C314.523 37.0773 315.632 37.76 317.296 37.504C319.088 37.2053 321.093 36.2453 323.312 34.624C323.781 34.1547 324.187 34.112 324.528 34.496C324.912 34.9227 324.784 35.3707 324.144 35.84C322.011 37.4613 319.707 38.784 317.232 39.808C314.8 40.7893 312.795 41.2373 311.216 41.152C307.931 40.9387 306.288 38.9547 306.288 35.2C306.288 34.8587 306.288 34.4533 306.288 33.984C306.331 33.4293 306.352 33.088 306.352 32.96C306.352 32.7893 306.309 32.6827 306.224 32.64C306.139 32.5973 305.968 32.64 305.712 32.768C304.859 33.1947 303.813 33.9627 302.576 35.072C302.405 35.2 302.235 35.264 302.064 35.264C301.552 35.264 301.296 34.9653 301.296 34.368C301.296 33.6427 301.701 33.0027 302.512 32.448C302.896 32.1493 304.325 31.3173 306.8 29.952C307.483 27.1787 308.037 25.1307 308.464 23.808C309.189 21.4187 310.021 19.4133 310.96 17.792C311.557 16.7253 312.581 16.192 314.032 16.192C314.459 16.192 314.907 16.256 315.376 16.384C316.955 16.768 317.744 17.408 317.744 18.304C317.744 18.688 317.637 19.1573 317.424 19.712C316.827 21.2053 316.016 23.424 314.992 26.368C318.619 24.1493 320.667 22.8907 321.136 22.592C323.568 20.928 325.403 19.264 326.64 17.6C326.725 17.5147 326.811 17.472 326.896 17.472C327.152 17.472 327.429 17.8773 327.728 18.688C328.027 19.456 328.176 20.0533 328.176 20.48Z" fill="#CB997E"></path></svg> 