<svg width="1284" height="187" viewBox="0 0 1284 187" fill="none" xmlns="http://www.w3.org/2000/svg">
<g opacity="0.1">
<path d="M868.095 71.9998C869.029 73.0665 869.362 74.3331 869.095 75.7998C868.962 77.2665 868.562 78.2665 867.895 78.7998C856.695 86.2665 842.229 96.4665 824.495 109.4C820.762 112.333 818.762 114 818.495 114.4C817.162 116 816.695 118.266 817.095 121.2C820.029 147.733 825.095 161 832.295 161C834.829 161 837.629 159.466 840.695 156.4C842.429 154.933 843.962 154.2 845.295 154.2C846.895 154.2 847.695 155.066 847.695 156.8C847.695 157.733 847.295 158.533 846.495 159.2C835.562 169.066 826.362 174 818.895 174C811.695 174 806.362 169.266 802.895 159.8C801.162 154.733 799.095 144.666 796.695 129.6C789.229 135.733 778.829 143.933 765.495 154.2C763.495 155.533 761.762 156.2 760.295 156.2C758.962 156.2 757.762 155.6 756.695 154.4C755.495 153.066 754.895 151.733 754.895 150.4C754.895 148.533 755.962 146.8 758.095 145.2C769.962 136.933 782.429 128.133 795.495 118.8C795.495 118.933 795.362 117 795.095 113C794.962 108.866 794.895 105 794.895 101.4C794.895 72.7331 800.029 56.7331 810.295 53.3998C811.362 52.9998 812.562 52.7998 813.895 52.7998C817.895 52.7998 821.229 54.2665 823.895 57.1998C824.562 57.9998 824.895 58.8665 824.895 59.7998C824.895 60.5998 824.295 62.1331 823.095 64.3998C818.695 76.7998 816.429 90.5998 816.295 105.8C827.229 97.7998 840.829 87.2665 857.095 74.1998C860.429 71.5331 862.962 70.1998 864.695 70.1998C866.029 70.1998 867.162 70.7998 868.095 71.9998Z" fill="#253237"/>
<path d="M766.334 85.6C757.267 96.4 746.401 112.6 733.734 134.2C721.867 154.467 714.201 169.333 710.734 178.8C709.801 181.067 708.867 184.467 707.934 189C707.934 189.933 707.801 190.933 707.534 192C707.134 192.4 706.667 192.6 706.134 192.6C704.667 192.6 702.934 191.667 700.934 189.8C699.067 187.933 697.801 186 697.134 184C696.201 181.2 695.734 178.2 695.734 175C695.734 169 697.467 162 700.934 154C701.334 153.067 704.401 146.933 710.134 135.6C700.534 144.4 690.867 152.267 681.134 159.2C666.867 169.2 656.134 174.067 648.934 173.8C642.134 173.533 638.734 169.867 638.734 162.8C638.734 148.8 650.067 125.333 672.734 92.4C686.601 72.4 696.934 60 703.734 55.2C704.934 54.4 706.467 54 708.334 54C711.667 54 714.334 55 716.334 57C718.334 59 719.334 61.4 719.334 64.2C719.334 65.9333 718.867 67.3333 717.934 68.4C707.534 80.9333 697.067 94.8667 686.534 110.2C671.201 132.6 663.534 147.467 663.534 154.8C663.534 157.333 664.601 158.6 666.734 158.6C670.734 158.6 677.867 154.467 688.134 146.2C695.067 140.733 700.667 135.867 704.934 131.6C711.467 124.933 719.001 115.8 727.534 104.2C739.801 87.4 746.601 78.2 747.934 76.6C750.467 73.5333 753.601 72 757.334 72C760.134 72 762.401 72.8 764.134 74.4C766.534 76.6667 767.734 79.0667 767.734 81.6C767.734 83.2 767.267 84.5333 766.334 85.6Z" fill="#253237"/>
<path d="M674.897 66.4001C673.163 67.0667 669.963 67.4001 665.297 67.4001C661.963 67.4001 658.63 67.4001 655.297 67.4001C649.03 67.5334 645.03 68.4667 643.297 70.2001C635.83 77.6667 625.297 91.0001 611.697 110.2C615.03 110.2 623.43 109.333 636.897 107.6C638.497 107.333 639.297 107.6 639.297 108.4C639.297 109.333 638.63 110.4 637.297 111.6C635.963 112.8 634.697 113.6 633.497 114C628.83 114.933 620.697 116.667 609.097 119.2C606.297 119.733 604.297 120.933 603.097 122.8C599.763 127.6 595.83 133.933 591.297 141.8C586.897 149.533 584.23 154.867 583.297 157.8C582.897 158.867 582.697 159.667 582.697 160.2C582.697 161.8 583.83 162.6 586.097 162.6C587.297 162.6 588.83 162.4 590.697 162C605.897 158.933 618.83 155.267 629.497 151C630.697 150.467 631.697 150.2 632.497 150.2C633.563 150.2 634.097 150.667 634.097 151.6C634.097 153.467 632.83 155.133 630.297 156.6C622.563 161 612.63 165.267 600.497 169.4C587.697 173.8 576.963 176.4 568.297 177.2C565.63 177.467 562.963 176.2 560.297 173.4C557.63 170.733 556.43 168 556.697 165.2C558.297 151.067 578.697 118.933 617.897 68.8001C612.43 68.8001 608.697 68.4001 606.697 67.6001C605.63 67.0667 605.097 66.0667 605.097 64.6001C605.097 63.2667 605.563 62.0001 606.497 60.8001C607.43 59.4667 608.63 58.8667 610.097 59.0001C615.563 59.1334 619.763 59.4001 622.697 59.8001C625.097 59.8001 626.563 59.6667 627.097 59.4001C630.03 57.8001 631.963 56.9334 632.897 56.8001C636.763 56.0001 639.697 55.8667 641.697 56.4001C643.963 56.8001 645.763 57.6001 647.097 58.8001C648.43 59.8667 649.163 60.4667 649.297 60.6001C650.23 61.0001 651.497 61.2667 653.097 61.4001C654.963 61.4001 658.03 61.3334 662.297 61.2001C668.03 60.9334 672.23 60.8001 674.897 60.8001C675.43 60.8001 675.763 61.2001 675.897 62.0001C676.163 62.8001 676.163 63.6667 675.897 64.6001C675.763 65.5334 675.43 66.1334 674.897 66.4001Z" fill="#253237"/>
<path d="M569.916 85.5996C569.916 95.0662 564.316 104.4 553.116 113.6C543.249 121.733 532.916 126.933 522.116 129.2C520.382 129.6 520.249 130.8 521.716 132.8C535.182 149.866 543.849 159.6 547.716 162C548.782 162.666 549.982 163 551.316 163C552.649 162.866 553.582 163.266 554.116 164.2C554.249 164.466 554.316 164.733 554.316 165C554.316 166.066 553.049 167.333 550.516 168.8C544.382 172.266 538.649 174 533.316 174C529.449 174 525.516 171.4 521.516 166.2C511.782 153.533 503.849 141.666 497.716 130.6C497.316 129.933 497.116 129.333 497.116 128.8C497.116 126.133 499.316 124.533 503.716 124C515.982 122.8 526.449 117.333 535.116 107.6C542.716 98.9329 546.516 90.2662 546.516 81.5996C546.516 73.5996 542.916 69.3329 535.716 68.7996C533.316 68.5329 531.182 69.3329 529.316 71.1996C523.449 77.4662 511.982 92.1329 494.916 115.2C481.316 133.466 470.516 150.466 462.516 166.2C459.849 171.533 458.316 175.533 457.916 178.2C457.782 179.4 457.382 180.666 456.716 182C455.116 182.4 453.316 181.533 451.316 179.4C449.316 177.266 448.049 175.333 447.516 173.6C446.716 171.2 446.316 168.6 446.316 165.8C446.316 153.533 455.782 134.666 474.716 109.2C481.382 100.133 491.982 87.0662 506.516 69.9996C494.249 70.7996 480.782 75.1996 466.116 83.1996C462.649 85.0662 460.182 84.7329 458.716 82.1996C458.316 81.5329 458.116 80.7996 458.116 79.9996C458.116 77.9996 459.049 76.4662 460.916 75.3996C470.249 69.6662 486.316 65.4662 509.116 62.7996C510.049 62.6662 511.649 62.3329 513.916 61.7996C515.116 61.3996 517.116 60.4662 519.916 58.9996C522.849 57.3996 526.649 57.1329 531.316 58.1996C533.049 58.5996 534.916 59.5329 536.916 60.9996C538.516 62.1996 540.582 62.7996 543.116 62.7996C560.982 66.1329 569.916 73.7329 569.916 85.5996Z" fill="#253237"/>
<path d="M452.154 85.6C443.088 96.4 432.221 112.6 419.554 134.2C407.688 154.467 400.021 169.333 396.554 178.8C395.621 181.067 394.688 184.467 393.754 189C393.754 189.933 393.621 190.933 393.354 192C392.954 192.4 392.488 192.6 391.954 192.6C390.488 192.6 388.754 191.667 386.754 189.8C384.888 187.933 383.621 186 382.954 184C382.021 181.2 381.554 178.2 381.554 175C381.554 169 383.288 162 386.754 154C387.154 153.067 390.221 146.933 395.954 135.6C386.354 144.4 376.688 152.267 366.954 159.2C352.688 169.2 341.954 174.067 334.754 173.8C327.954 173.533 324.554 169.867 324.554 162.8C324.554 148.8 335.888 125.333 358.554 92.4C372.421 72.4 382.754 60 389.554 55.2C390.754 54.4 392.288 54 394.154 54C397.488 54 400.154 55 402.154 57C404.154 59 405.154 61.4 405.154 64.2C405.154 65.9333 404.688 67.3333 403.754 68.4C393.354 80.9333 382.888 94.8667 372.354 110.2C357.021 132.6 349.354 147.467 349.354 154.8C349.354 157.333 350.421 158.6 352.554 158.6C356.554 158.6 363.688 154.467 373.954 146.2C380.888 140.733 386.488 135.867 390.754 131.6C397.288 124.933 404.821 115.8 413.354 104.2C425.621 87.4 432.421 78.2 433.754 76.6C436.288 73.5333 439.421 72 443.154 72C445.954 72 448.221 72.8 449.954 74.4C452.354 76.6667 453.554 79.0667 453.554 81.6C453.554 83.2 453.088 84.5333 452.154 85.6Z" fill="#253237"/>
<path d="M360.717 66.4001C358.984 67.0667 355.784 67.4001 351.117 67.4001C347.784 67.4001 344.45 67.4001 341.117 67.4001C334.85 67.5334 330.85 68.4667 329.117 70.2001C321.65 77.6667 311.117 91.0001 297.517 110.2C300.85 110.2 309.25 109.333 322.717 107.6C324.317 107.333 325.117 107.6 325.117 108.4C325.117 109.333 324.45 110.4 323.117 111.6C321.784 112.8 320.517 113.6 319.317 114C314.65 114.933 306.517 116.667 294.917 119.2C292.117 119.733 290.117 120.933 288.917 122.8C285.584 127.6 281.65 133.933 277.117 141.8C272.717 149.533 270.05 154.867 269.117 157.8C268.717 158.867 268.517 159.667 268.517 160.2C268.517 161.8 269.65 162.6 271.917 162.6C273.117 162.6 274.65 162.4 276.517 162C291.717 158.933 304.65 155.267 315.317 151C316.517 150.467 317.517 150.2 318.317 150.2C319.384 150.2 319.917 150.667 319.917 151.6C319.917 153.467 318.65 155.133 316.117 156.6C308.384 161 298.45 165.267 286.317 169.4C273.517 173.8 262.784 176.4 254.117 177.2C251.45 177.467 248.784 176.2 246.117 173.4C243.45 170.733 242.25 168 242.517 165.2C244.117 151.067 264.517 118.933 303.717 68.8001C298.25 68.8001 294.517 68.4001 292.517 67.6001C291.45 67.0667 290.917 66.0667 290.917 64.6001C290.917 63.2667 291.384 62.0001 292.317 60.8001C293.25 59.4667 294.45 58.8667 295.917 59.0001C301.384 59.1334 305.584 59.4001 308.517 59.8001C310.917 59.8001 312.384 59.6667 312.917 59.4001C315.85 57.8001 317.784 56.9334 318.717 56.8001C322.584 56.0001 325.517 55.8667 327.517 56.4001C329.784 56.8001 331.584 57.6001 332.917 58.8001C334.25 59.8667 334.984 60.4667 335.117 60.6001C336.05 61.0001 337.317 61.2667 338.917 61.4001C340.784 61.4001 343.85 61.3334 348.117 61.2001C353.85 60.9334 358.05 60.8001 360.717 60.8001C361.25 60.8001 361.584 61.2001 361.717 62.0001C361.984 62.8001 361.984 63.6667 361.717 64.6001C361.584 65.5334 361.25 66.1334 360.717 66.4001Z" fill="#253237"/>
<path d="M278.212 57.4002C270.746 64.0669 260.412 77.3335 247.212 97.2002C225.612 129.867 212.546 153.667 208.012 168.6C207.879 170.734 207.679 173 207.412 175.4C207.279 175.534 207.146 175.667 207.012 175.8C206.479 176.067 205.946 176.2 205.412 176.2C202.346 176.2 199.812 174 197.812 169.6C195.946 165.867 195.012 162.2 195.012 158.6C195.012 148.734 201.412 133.334 214.212 112.4C209.946 115.2 198.079 116.6 178.612 116.6C177.279 116.6 175.612 117.934 173.612 120.6C168.012 129.667 159.012 144.534 146.612 165.2C143.946 169.867 140.479 172.2 136.212 172.2C133.679 172.2 131.346 171.267 129.212 169.4C127.079 167.534 126.012 165.334 126.012 162.8C126.012 161.467 126.346 160.2 127.012 159C133.146 149.134 141.612 135.334 152.412 117.6C151.346 117.467 149.679 117.467 147.412 117.6C144.479 117.867 142.479 118 141.412 118C136.746 118 133.479 116.867 131.612 114.6C130.946 113.667 130.612 112.467 130.612 111C130.612 107.4 131.812 105.6 134.212 105.6C134.746 105.6 135.212 105.667 135.612 105.8C140.946 108.067 148.346 109 157.812 108.6C165.546 96.2002 175.812 80.2669 188.612 60.8002C190.079 58.6669 192.679 57.6002 196.412 57.6002C203.879 57.6002 207.612 60.4002 207.612 66.0002C207.612 66.9335 207.412 67.7335 207.012 68.4002C200.212 78.5335 191.346 92.0669 180.412 109C198.146 109 209.146 108.534 213.412 107.6C214.479 107.334 216.012 106.934 218.012 106.4L221.012 101.6C230.479 86.9335 237.212 77.0002 241.212 71.8002C252.012 58.0669 260.879 51.2002 267.812 51.2002C272.746 51.2002 276.146 51.9335 278.012 53.4002C279.879 54.8669 279.946 56.2002 278.212 57.4002Z" fill="#253237"/>
<path d="M109.744 62.2C103.344 71 97.0771 79.8 90.9437 88.6C89.7437 90.2 88.3438 91 86.7438 91C83.8104 91 82.3438 89.4 82.3438 86.2C82.3438 85.2667 82.4771 84.4 82.7438 83.6C84.2104 79.4667 88.2104 69.4667 94.7438 53.6C96.2104 49.8667 98.7437 48 102.344 48C103.944 48 105.544 48.4667 107.144 49.4C109.677 50.8667 110.944 53.4667 110.944 57.2C110.944 59.0667 110.544 60.7333 109.744 62.2Z" fill="#253237"/>
<path d="M92.6547 61.6004C81.1881 72.2671 68.2547 87.2671 53.8547 106.6C48.3881 114.2 42.9214 122.4 37.4547 131.2C28.9214 144.8 25.1881 153.2 26.2547 156.4C26.5214 157.334 27.7881 157.8 30.0547 157.8C36.5881 157.8 48.9214 154.8 67.0547 148.8C72.5214 146.934 75.4547 146.734 75.8547 148.2C76.3881 150.2 74.2547 152.334 69.4547 154.6C52.2547 163 35.9214 168.6 20.4547 171.4C14.1881 172.6 9.58805 172.134 6.65472 170C3.18805 166.934 1.25472 163.867 0.854721 160.8C-0.211946 152.267 9.65472 133.8 30.4547 105.4C47.5214 82.2004 60.9881 66.4004 70.8547 58.0004C73.6547 55.6004 77.2547 54.4004 81.6547 54.4004C83.6547 54.4004 85.6547 54.6671 87.6547 55.2004C91.6547 56.2671 93.6547 57.8004 93.6547 59.8004C93.6547 60.4671 93.3214 61.0671 92.6547 61.6004Z" fill="#253237"/>
<path d="M1281.94 71.6004C1282.88 72.6671 1283.21 73.9337 1282.94 75.4004C1282.81 76.8671 1282.41 77.8671 1281.74 78.4004C1270.54 85.8671 1256.08 96.0671 1238.34 109C1234.61 111.934 1232.61 113.6 1232.34 114C1231.01 115.6 1230.54 117.867 1230.94 120.8C1233.88 147.334 1238.94 160.6 1246.14 160.6C1248.68 160.6 1251.48 159.067 1254.54 156C1256.28 154.534 1257.81 153.8 1259.14 153.8C1260.74 153.8 1261.54 154.667 1261.54 156.4C1261.54 157.334 1261.14 158.134 1260.34 158.8C1249.41 168.667 1240.21 173.6 1232.74 173.6C1225.54 173.6 1220.21 168.867 1216.74 159.4C1215.01 154.334 1212.94 144.267 1210.54 129.2C1203.08 135.334 1192.68 143.534 1179.34 153.8C1177.34 155.134 1175.61 155.8 1174.14 155.8C1172.81 155.8 1171.61 155.2 1170.54 154C1169.34 152.667 1168.74 151.334 1168.74 150C1168.74 148.134 1169.81 146.4 1171.94 144.8C1183.81 136.534 1196.28 127.734 1209.34 118.4C1209.34 118.534 1209.21 116.6 1208.94 112.6C1208.81 108.467 1208.74 104.6 1208.74 101C1208.74 72.3337 1213.88 56.3337 1224.14 53.0004C1225.21 52.6004 1226.41 52.4004 1227.74 52.4004C1231.74 52.4004 1235.08 53.8671 1237.74 56.8004C1238.41 57.6004 1238.74 58.4671 1238.74 59.4004C1238.74 60.2004 1238.14 61.7337 1236.94 64.0004C1232.54 76.4004 1230.28 90.2004 1230.14 105.4C1241.08 97.4004 1254.68 86.8671 1270.94 73.8004C1274.28 71.1337 1276.81 69.8004 1278.54 69.8004C1279.88 69.8004 1281.01 70.4004 1281.94 71.6004Z" fill="#CB997E"/>
<path d="M1211.58 56.2002C1212.78 56.0669 1213.38 56.8002 1213.38 58.4002C1213.38 60.6669 1211.84 61.8669 1208.78 62.0002C1206.64 62.0002 1203.71 62.1335 1199.98 62.4002C1189.84 70.5335 1177.31 86.4669 1162.38 110.2C1148.51 132.067 1138.84 150.2 1133.38 164.6C1138.58 164.6 1142.98 164.667 1146.58 164.8C1149.38 164.934 1150.78 166 1150.78 168C1150.78 170 1150.04 171 1148.58 171C1136.84 170.734 1130.91 170.6 1130.78 170.6C1130.11 171.934 1129.71 173.534 1129.58 175.4C1129.44 177.267 1129.18 178.267 1128.78 178.4C1127.84 178.934 1126.51 178.6 1124.78 177.4C1122.38 175.667 1120.64 173.4 1119.58 170.6C1115.04 170.734 1109.24 171.134 1102.18 171.8C1099.51 172.067 1098.18 170.8 1098.18 168C1098.18 166 1099.11 164.934 1100.98 164.8C1104.98 164.4 1110.71 164.2 1118.18 164.2C1116.98 153.134 1123.64 135.467 1138.18 111.2C1150.04 91.4669 1161.71 75.3335 1173.18 62.8002C1167.44 62.8002 1163.64 62.7335 1161.78 62.6002C1160.04 62.3335 1159.18 61.3335 1159.18 59.6002C1159.18 56.5335 1160.64 55.1335 1163.58 55.4002C1170.78 56.0669 1176.98 56.4669 1182.18 56.6002C1185.38 55.0002 1188.31 54.2002 1190.98 54.2002C1195.11 54.2002 1198.24 55.0002 1200.38 56.6002C1205.31 56.6002 1209.04 56.4669 1211.58 56.2002Z" fill="#CB997E"/>
<path d="M1131.58 71.4C1131.98 75.2667 1130.78 79 1127.98 82.6C1104.12 113.667 1085.78 143.733 1072.98 172.8C1072.05 174.8 1071.18 177.6 1070.38 181.2C1070.38 181.2 1070.38 182.333 1070.38 184.6C1070.38 185.667 1069.72 186.2 1068.38 186.2C1067.18 186.2 1066.25 185.933 1065.58 185.4C1059.85 182.2 1057.38 175.933 1058.18 166.6C1059.65 150.6 1075.05 122.467 1104.38 82.2C1104.92 81.4 1105.18 80.7333 1105.18 80.2C1105.18 79.5333 1104.78 79.2 1103.98 79.2C1103.45 79.2 1102.65 79.4 1101.58 79.8C1087.32 85.9333 1070.72 98.5333 1051.78 117.6C1042.72 126.8 1030.92 140.8 1016.38 159.6C1014.52 162 1011.92 163.2 1008.58 163.2C1006.45 163.2 1004.52 162.6 1002.78 161.4C1000.52 159.667 999.384 157.133 999.384 153.8C999.384 151.4 1000.05 149.2 1001.38 147.2C1010.98 133.2 1022.45 115 1035.78 92.6C1037.25 90.0667 1037.98 88.2 1037.98 87C1037.98 86.2 1037.65 85.8 1036.98 85.8C1036.18 85.8 1034.98 86.3333 1033.38 87.4C1018.98 97.1333 1005.98 108.067 994.384 120.2C975.051 140.467 961.318 156.2 953.184 167.4C951.184 170.2 947.917 171.6 943.384 171.6C941.784 171.6 940.251 171.333 938.784 170.8C935.051 169.333 933.184 166.533 933.184 162.4C933.184 160.8 933.584 159.4 934.384 158.2C935.451 156.333 947.184 139.867 969.584 108.8C986.784 84.9333 995.851 69.3333 996.784 62C997.318 58 995.918 56 992.584 56C987.518 56 979.384 60.0667 968.184 68.2C957.784 75.6667 951.184 81.6667 948.384 86.2C946.917 88.4667 945.051 89.6 942.784 89.6C940.251 89.6 938.984 88.2667 938.984 85.6C938.984 83.7333 940.318 81.4667 942.984 78.8C949.651 71.8667 957.851 65.5333 967.584 59.8C980.784 51.9333 992.851 48 1003.78 48C1011.92 48 1015.98 51.6 1015.98 58.8C1015.98 66.4 1011.58 77.6667 1002.78 92.6C1000.25 96.8667 994.851 105.067 986.584 117.2C984.717 120 983.784 121.467 983.784 121.6C983.784 121.733 983.784 121.8 983.784 121.8C984.318 121.533 985.451 120.533 987.184 118.8C1020.92 85.0667 1043.85 68.2 1055.98 68.2C1061.85 68.2 1064.78 71 1064.78 76.6C1064.78 80.7333 1061.12 89.1333 1053.78 101.8C1052.18 104.2 1049.92 107.667 1046.98 112.2C1046.98 112.2 1050.38 109.133 1057.18 103C1064.92 96.0667 1074.92 88.4667 1087.18 80.2C1102.78 69.6667 1114.05 63.9333 1120.98 63C1127.38 62.0667 1130.92 64.8667 1131.58 71.4Z" fill="#CB997E"/>
</g>
</svg>
